#!OML:ASF F:\VICON\USERDATA\INSTALL\rory3\rory3.ASF
:FULLY-SPECIFIED
:DEGREES
376
root -7.84861 18.0624 11.0445 -9.58712 -47.6221 7.90397
lowerback 11.9178 1.22872 -3.69786
upperback 1.20037 1.05751 -0.949816
thorax -5.47606 0.579463 0.916109
lowerneck -20.126 -3.97123 -9.5099
upperneck 26.8025 -4.45529 6.03608
head 12.6191 -2.21757 3.16486
rclavicle 1.48592e-014 1.23246e-014
rhumerus -33.9012 -11.9127 -79.4323
rradius 36.2691
rwrist 8.49588
rhand -11.9025 9.37732
rfingers 7.12502
rthumb 14.151 -20.1207
lclavicle 1.48592e-014 1.23246e-014
lhumerus -35.1072 5.14022 82.2591
lradius 28.5865
lwrist -13.6468
lhand -13.7942 26.2745
lfingers 7.12502
lthumb 12.3275 55.8911
rfemur -18.1393 -3.5497 14.4616
rtibia 73.9594
rfoot -1.18179 -6.5456
rtoes 9.67972
lfemur -4.38997 -1.43257 -29.0746
ltibia 19.4872
lfoot -7.34077 -6.62053
ltoes 12.8817
377
root -7.93204 18.0545 11.133 -9.61971 -47.3769 7.87146
lowerback 12.183 1.10889 -3.88386
upperback 1.10847 0.870278 -0.765915
thorax -5.71839 0.498995 1.24033
lowerneck -20.158 -3.9567 -9.4666
upperneck 26.9635 -4.358 5.72114
head 12.6728 -2.21441 3.05422
rclavicle 4.95222e-014 -8.34896e-015
rhumerus -34.0935 -12.3405 -79.0346
rradius 35.8808
rwrist 8.74904
rhand -11.8744 9.61398
rfingers 7.12502
rthumb 14.178 -19.8822
lclavicle 4.95222e-014 -8.34896e-015
lhumerus -35.0046 5.15013 82.4549
lradius 28.8909
lwrist -13.1481
lhand -13.8524 26.3091
lfingers 7.12502
lthumb 12.2714 55.9291
rfemur -19.0165 -3.92581 14.4313
rtibia 73.8385
rfoot -2.28586 -6.43377
rtoes 9.80788
lfemur -4.03679 -1.91565 -29.1882
ltibia 19.835
lfoot -7.66779 -6.24875
ltoes 14.2018
378
root -8.01756 18.0424 11.2241 -9.73127 -47.3613 8.00799
lowerback 12.2781 1.05516 -4.10103
upperback 1.04964 0.770927 -0.649324
thorax -5.83328 0.459899 1.50059
lowerneck -20.1054 -3.92996 -9.56307
upperneck 26.9848 -4.27272 5.6533
head 12.6641 -2.1975 3.05938
rclavicle 5.48149e-014 -8.34896e-015
rhumerus -34.356 -12.4053 -78.8093
rradius 35.6981
rwrist 8.47787
rhand -11.9247 9.27201
rfingers 7.12502
rthumb 14.1296 -20.2276
lclavicle 5.48149e-014 -8.34896e-015
lhumerus -34.9033 5.22681 82.5575
lradius 29.2563
lwrist -12.7983
lhand -14.1226 25.9876
lfingers 7.12502
lthumb 12.0109 55.623
rfemur -19.9401 -3.97062 14.326
rtibia 73.5691
rfoot -3.26913 -6.12025
rtoes 10.8707
lfemur -3.71539 -2.3099 -29.416
ltibia 20.1446
lfoot -8.07751 -5.80058
ltoes 14.6712
379
root -8.10425 18.0295 11.3126 -9.80551 -47.3992 8.1458
lowerback 12.2598 1.01832 -4.27863
upperback 1.01592 0.702405 -0.5837
thorax -5.85799 0.432693 1.68149
lowerneck -20.008 -3.91427 -9.65991
upperneck 26.9454 -4.25582 5.74655
head 12.6316 -2.18918 3.11479
rclavicle 9.14658e-014 1.59028e-015
rhumerus -34.5969 -12.5954 -78.6234
rradius 35.4933
rwrist 8.28815
rhand -12.0268 8.40729
rfingers 7.12502
rthumb 14.0312 -21.0991
lclavicle 9.14658e-014 1.59028e-015
lhumerus -34.7074 4.70922 82.785
lradius 29.6263
lwrist -11.8445
lhand -14.4835 25.6577
lfingers 7.12502
lthumb 11.6629 55.3131
rfemur -20.9221 -3.94525 14.271
rtibia 73.134
rfoot -4.06702 -5.7427
rtoes 11.8303
lfemur -3.49128 -2.27121 -29.6034
ltibia 20.4996
lfoot -8.58071 -5.64603
ltoes 14.287
380
root -8.19163 18.0157 11.4006 -9.89182 -47.3359 8.31694
lowerback 12.2208 0.948744 -4.47317
upperback 0.996334 0.58898 -0.528009
thorax -5.85272 0.38304 1.86956
lowerneck -19.9356 -3.88967 -9.72425
upperneck 26.8796 -4.21393 5.78017
head 12.5889 -2.17315 3.14499
rclavicle -1.10574e-014 7.55382e-015
rhumerus -34.701 -13.1991 -78.3014
rradius 35.0734
rwrist 8.58592
rhand -11.982 8.16436
rfingers 7.12502
rthumb 14.0743 -21.339
lclavicle -1.10574e-014 7.55382e-015
lhumerus -34.4242 4.06183 83.0873
lradius 29.9337
lwrist -10.6824
lhand -14.8609 25.7414
lfingers 7.12502
lthumb 11.2989 55.417
rfemur -21.8469 -4.02811 14.1704
rtibia 72.5305
rfoot -5.01658 -5.33411
rtoes 11.27
lfemur -3.27596 -2.12884 -29.8132
ltibia 20.8844
lfoot -9.16723 -5.62423
ltoes 13.1355
381
root -8.27916 18.002 11.4915 -9.90182 -47.1977 8.31777
lowerback 12.1924 0.836811 -4.51498
upperback 1.03002 0.440573 -0.475178
thorax -5.79204 0.310217 1.9747
lowerneck -19.865 -3.86021 -9.58203
upperneck 26.731 -4.16086 5.58893
head 12.5016 -2.15834 3.05288
rclavicle 5.46409e-014 -6.36111e-015
rhumerus -34.7386 -13.606 -78.119
rradius 34.6696
rwrist 8.65105
rhand -11.9067 8.25262
rfingers 7.12502
rthumb 14.1469 -21.2457
lclavicle 5.46409e-014 -6.36111e-015
lhumerus -34.1515 3.83107 83.1848
lradius 30.3441
lwrist -10.341
lhand -15.0687 26.0076
lfingers 7.12502
lthumb 11.0985 55.6942
rfemur -22.5846 -4.10239 14.1772
rtibia 71.7359
rfoot -6.01764 -4.98236
rtoes 9.04511
lfemur -3.00294 -2.2192 -29.9225
ltibia 21.3124
lfoot -9.71729 -5.46387
ltoes 11.8261
382
root -8.36605 17.9872 11.5793 -9.98089 -47.0433 8.33944
lowerback 12.2439 0.711901 -4.61624
upperback 1.09223 0.2639 -0.401929
thorax -5.74366 0.224648 2.13929
lowerneck -19.9016 -3.8302 -9.55287
upperneck 26.6534 -4.09655 5.51558
head 12.4697 -2.13426 3.0287
rclavicle 2.51463e-014 1.43125e-014
rhumerus -34.7796 -13.5532 -78.1013
rradius 34.4419
rwrist 8.29571
rhand -11.9453 8.29038
rfingers 7.12502
rthumb 14.1097 -21.2106
lclavicle 2.51463e-014 1.43125e-014
lhumerus -33.8356 3.60113 83.2922
lradius 30.741
lwrist -10.0545
lhand -14.9831 26.1796
lfingers 7.12502
lthumb 11.181 55.8617
rfemur -23.2072 -4.13065 14.1794
rtibia 70.7744
rfoot -7.26323 -4.71273
rtoes 7.11218
lfemur -2.69496 -2.32434 -30.0372
ltibia 21.7483
lfoot -10.233 -5.31893
ltoes 10.7651
383
root -8.45366 17.9646 11.6607 -9.96385 -46.89 8.36657
lowerback 12.2763 0.638513 -4.74934
upperback 1.05666 0.151932 -0.308976
thorax -5.7921 0.176057 2.33139
lowerneck -19.9068 -3.86551 -9.71767
upperneck 26.7089 -4.12038 5.59996
head 12.5018 -2.152 3.08626
rclavicle -1.13854e-013 -6.75868e-015
rhumerus -34.8923 -13.8769 -77.9118
rradius 34.0819
rwrist 8.39072
rhand -12.0005 8.44513
rfingers 7.12502
rthumb 14.0565 -21.0595
lclavicle -1.13854e-013 -6.75868e-015
lhumerus -33.5982 3.09278 83.5232
lradius 31.1292
lwrist -9.55484
lhand -15.0567 26.322
lfingers 7.12502
lthumb 11.1101 56.0079
rfemur -23.9355 -4.14014 14.2371
rtibia 69.6687
rfoot -8.44949 -4.53957
rtoes 5.68359
lfemur -2.50574 -2.37398 -30.1323
ltibia 22.1703
lfoot -10.7574 -5.18378
ltoes 9.34973
384
root -8.54067 17.9471 11.735 -9.73685 -46.6193 8.23791
lowerback 12.3824 0.52916 -4.9098
upperback 0.920847 -0.0120154 -0.129761
thorax -5.98307 0.109766 2.63948
lowerneck -19.8398 -3.93897 -9.91531
upperneck 26.7207 -4.17447 5.61985
head 12.5046 -2.19547 3.11862
rclavicle -4.39563e-014 1.19271e-014
rhumerus -35.0275 -14.1848 -77.6466
rradius 33.6347
rwrist 8.61265
rhand -12.0064 8.36948
rfingers 7.12502
rthumb 14.0508 -21.1356
lclavicle -4.39563e-014 1.19271e-014
lhumerus -33.5079 2.74329 83.7697
lradius 31.5739
lwrist -9.19409
lhand -15.3284 26.2258
lfingers 7.12502
lthumb 10.848 55.9256
rfemur -24.6925 -4.31152 14.4467
rtibia 68.3795
rfoot -9.1235 -4.86408
rtoes 3.87717
lfemur -2.4147 -2.32309 -30.0662
ltibia 22.5578
lfoot -11.1487 -5.34623
ltoes 7.79731
385
root -8.63086 17.9293 11.8205 -9.84721 -46.5187 8.44566
lowerback 12.3791 0.479045 -5.2113
upperback 0.919264 -0.1166 -0.0729177
thorax -5.97398 0.066925 2.88806
lowerneck -19.8564 -3.96338 -9.87644
upperneck 26.6418 -4.21366 5.60833
head 12.4789 -2.20838 3.09924
rclavicle -2.14439e-014 5.1684e-015
rhumerus -35.1819 -13.9766 -77.6597
rradius 33.5277
rwrist 8.3086
rhand -12.1593 8.20712
rfingers 7.12502
rthumb 13.9035 -21.3081
lclavicle -2.14439e-014 5.1684e-015
lhumerus -33.246 2.46885 83.8719
lradius 32.0064
lwrist -8.93384
lhand -15.62 26.0812
lfingers 7.12502
lthumb 10.5667 55.7955
rfemur -25.3114 -4.34458 14.3827
rtibia 66.9442
rfoot -9.766 -5.32773
rtoes 2.71043
lfemur -2.12288 -2.3336 -30.2661
ltibia 22.8203
lfoot -11.3376 -5.42034
ltoes 7.91084
386
root -8.71858 17.9183 11.9015 -9.79795 -46.3735 8.47625
lowerback 12.4039 0.398835 -5.33788
upperback 0.903808 -0.238809 -0.0173161
thorax -5.99285 0.0120074 3.03979
lowerneck -19.8709 -3.92624 -9.76383
upperneck 26.584 -4.18871 5.5907
head 12.4524 -2.18664 3.07645
rclavicle -1.66482e-014 2.22639e-014
rhumerus -35.3852 -13.7513 -77.6736
rradius 33.5148
rwrist 7.99559
rhand -12.176 8.25907
rfingers 7.12502
rthumb 13.8874 -21.2572
lclavicle -1.66482e-014 2.22639e-014
lhumerus -32.9837 2.06437 83.9795
lradius 32.5553
lwrist -8.4044
lhand -15.8028 26.1278
lfingers 7.12502
lthumb 10.3904 55.8511
rfemur -25.8838 -4.32404 14.4293
rtibia 65.3426
rfoot -10.7795 -5.78138
rtoes 3.24777
lfemur -1.85458 -2.33422 -30.3237
ltibia 22.9936
lfoot -11.5585 -5.5902
ltoes 8.97426
387
root -8.8054 17.9198 11.985 -9.69958 -46.2878 8.4221
lowerback 12.4585 0.338789 -5.34171
upperback 0.857937 -0.31838 0.0564517
thorax -6.06432 -0.0227015 3.13447
lowerneck -19.8133 -3.93164 -9.79759
upperneck 26.5844 -4.19995 5.61438
head 12.4434 -2.19326 3.08971
rclavicle -1.2424e-015 1.11319e-014
rhumerus -35.5836 -13.9185 -77.49
rradius 33.3208
rwrist 8.13547
rhand -11.9441 8.03479
rfingers 7.12502
rthumb 14.1109 -21.4661
lclavicle -1.2424e-015 1.11319e-014
lhumerus -32.8265 1.60108 84.1267
lradius 33.1579
lwrist -7.71475
lhand -16.1027 26.1743
lfingers 7.12502
lthumb 10.1011 55.9119
rfemur -26.3211 -4.10295 14.4462
rtibia 63.6232
rfoot -11.8843 -5.91791
rtoes 6.36512
lfemur -1.46259 -2.26816 -30.3151
ltibia 22.9329
lfoot -11.7303 -5.77453
ltoes 9.97797
388
root -8.8955 17.9066 12.0707 -9.72941 -46.202 8.59753
lowerback 12.4007 0.295756 -5.51291
upperback 0.851982 -0.395634 0.0595455
thorax -6.03018 -0.0567364 3.24745
lowerneck -19.8758 -3.97398 -9.84346
upperneck 26.6114 -4.26954 5.70968
head 12.477 -2.21585 3.12279
rclavicle -4.77083e-015 -1.11319e-014
rhumerus -35.686 -14.2635 -77.3145
rradius 32.9483
rwrist 8.63417
rhand -11.8399 7.91845
rfingers 7.12502
rthumb 14.2113 -21.5754
lclavicle -4.77083e-015 -1.11319e-014
lhumerus -32.5693 1.23349 84.2078
lradius 33.5671
lwrist -7.17717
lhand -16.6392 25.7273
lfingers 7.12502
lthumb 9.58348 55.4893
rfemur -26.7517 -4.24779 14.4677
rtibia 61.7042
rfoot -11.9205 -6.63314
rtoes 3.18715
lfemur -1.01682 -2.22947 -30.4873
ltibia 22.7411
lfoot -11.768 -5.8148
ltoes 10.1119
389
root -8.98904 17.9131 12.1531 -9.69906 -46.0818 8.74761
lowerback 12.3025 0.227114 -5.73912
upperback 0.862115 -0.511157 0.0632091
thorax -5.95165 -0.10987 3.39799
lowerneck -20.008 -3.99616 -9.79806
upperneck 26.5898 -4.327 5.79511
head 12.5011 -2.22252 3.13737
rclavicle -9.85972e-014 4.21423e-014
rhumerus -35.6773 -14.7048 -77.1854
rradius 32.4792
rwrist 9.27662
rhand -12.051 8.07487
rfingers 7.12502
rthumb 14.0079 -21.4332
lclavicle -9.85972e-014 4.21423e-014
lhumerus -32.3027 1.03569 84.1684
lradius 34.0181
lwrist -7.17089
lhand -16.5781 25.7349
lfingers 7.12502
lthumb 9.64238 55.4942
rfemur -27.1936 -4.14694 14.4084
rtibia 59.6558
rfoot -11.8806 -7.08327
rtoes 4.27094
lfemur -0.576893 -1.99012 -30.6009
ltibia 22.4395
lfoot -11.8687 -5.85635
ltoes 10.0232
390
root -9.08139 17.923 12.2358 -9.61777 -46.0005 8.87843
lowerback 12.1794 0.17672 -5.90624
upperback 0.845517 -0.592335 0.0711111
thorax -5.8907 -0.146554 3.51323
lowerneck -20.0762 -4.06094 -9.73211
upperneck 26.5373 -4.43032 5.78784
head 12.5018 -2.26009 3.10424
rclavicle -4.52732e-014 1.03368e-014
rhumerus -35.7027 -15.0977 -77.0307
rradius 32.0115
rwrist 9.68246
rhand -12.0965 8.51151
rfingers 7.12502
rthumb 13.964 -20.9995
lclavicle -4.52732e-014 1.03368e-014
lhumerus -32.0506 0.994075 84.0673
lradius 34.5439
lwrist -7.78793
lhand -15.8297 25.9557
lfingers 7.12502
lthumb 10.3644 55.6803
rfemur -27.5697 -3.96256 14.3223
rtibia 57.4351
rfoot -12.0521 -7.50088
rtoes 6.1196
lfemur -0.167017 -1.73868 -30.7228
ltibia 22.116
lfoot -12.1799 -5.56719
ltoes 8.72359
